<svg width="575" height="173" viewBox="0 0 575 173" fill="none" xmlns="http://www.w3.org/2000/svg">
<rect width="173" height="173" rx="10" fill="#FF7051"/>
<path fill-rule="evenodd" clip-rule="evenodd" d="M99 58C99 56.3431 97.6569 55 96 55H29C27.3431 55 26 56.3431 26 58V115C26 116.657 27.3431 118 29 118H29.1084C30.7257 118 32.0192 116.703 32.3936 115.13C33.9128 108.747 39.652 104 46.5 104C53.348 104 59.0872 108.747 60.6064 115.13C60.9808 116.703 62.2743 118 63.8916 118H96C97.6569 118 99 116.657 99 115V58ZM54.8582 118C56.5654 118 57.9642 116.551 57.4344 114.928C55.9317 110.325 51.6042 107 46.5 107C41.3958 107 37.0683 110.325 35.5656 114.928C35.0358 116.551 36.4346 118 38.1418 118H54.8582Z" fill="#FFEAE6"/>
<path d="M58 118.5C58 124.851 52.8513 130 46.5 130C40.1487 130 35 124.851 35 118.5C35 112.149 40.1487 107 46.5 107C52.8513 107 58 112.149 58 118.5Z" fill="#404040"/>
<path fill-rule="evenodd" clip-rule="evenodd" d="M110.394 115.13C110.019 116.703 108.726 118 107.108 118H107C105.343 118 104 116.657 104 115V77C104 75.3431 105.343 74 107 74H127.351C128.091 74 128.805 74.2735 129.355 74.7679L152.004 95.106C152.638 95.675 153 96.4865 153 97.3381V115C153 116.657 151.657 118 150 118H141.892C140.274 118 138.981 116.703 138.606 115.13C137.087 108.747 131.348 104 124.5 104C117.652 104 111.913 108.747 110.394 115.13ZM135.434 114.928C135.964 116.551 134.565 118 132.858 118H116.142C114.435 118 113.036 116.551 113.566 114.928C115.068 110.325 119.396 107 124.5 107C129.604 107 133.932 110.325 135.434 114.928Z" fill="#FFEAE6"/>
<path d="M136 118.5C136 124.851 130.851 130 124.5 130C118.149 130 113 124.851 113 118.5C113 112.149 118.149 107 124.5 107C130.851 107 136 112.149 136 118.5Z" fill="#404040"/>
<path d="M227.25 124H236.25V103H243.675C252.9 103 259.5 97.3 259.5 86.875V83.125C259.5 73.075 252.9 67.75 243.675 67.75H227.25V124ZM242.925 76C247.575 76 250.5 78.175 250.5 83.875V86.125C250.5 92.275 247.575 94.75 242.925 94.75H236.25V76H242.925ZM288.938 124H297.788V97.9C297.788 89.125 290.138 85.75 281.888 85.75C273.488 85.75 265.538 89.5 265.538 99.25H274.913C274.913 95.05 277.763 92.875 281.888 92.875C285.788 92.875 288.788 94.6 288.788 97.525C288.788 105.025 264.413 97.825 264.413 113.95C264.413 121.525 270.563 124.75 277.013 124.75C282.188 124.75 286.538 122.875 288.938 118.45V124ZM273.638 113.35C273.638 108.55 282.938 109.3 288.938 106.825V108.55C288.938 114.25 284.138 117.25 278.888 117.25C275.888 117.25 273.638 115.975 273.638 113.35ZM333.023 101.425H342.473C341.573 92.05 333.848 85.75 323.723 85.75C312.923 85.75 304.898 93.775 304.898 105.25C304.898 116.725 312.923 124.75 323.723 124.75C334.148 124.75 342.098 118.15 342.548 108.25H333.248C332.498 113.725 328.448 116.5 323.723 116.5C318.098 116.5 313.898 112 313.898 105.25C313.898 98.5 318.098 94 323.723 94C328.448 94 332.423 96.475 333.023 101.425ZM375.568 124H386.818L369.343 103.525L385.843 86.5H373.993L359.443 102.85V67.75H350.443V124H359.443V104.275L375.568 124ZM388.351 76H399.376V124H408.376V76H419.401V67.75H388.351V76ZM432.1 104.875C432.1 98.575 436 95.125 442.675 95.125C444.175 95.125 445.525 95.35 446.575 95.725V85.9C446.125 85.75 445.375 85.75 444.7 85.75C439.225 85.75 434.8 88.15 432.1 92.575V86.5H423.1V124H432.1V104.875ZM475.632 124H484.482V97.9C484.482 89.125 476.832 85.75 468.582 85.75C460.182 85.75 452.232 89.5 452.232 99.25H461.607C461.607 95.05 464.457 92.875 468.582 92.875C472.482 92.875 475.482 94.6 475.482 97.525C475.482 105.025 451.107 97.825 451.107 113.95C451.107 121.525 457.257 124.75 463.707 124.75C468.882 124.75 473.232 122.875 475.632 118.45V124ZM460.332 113.35C460.332 108.55 469.632 109.3 475.632 106.825V108.55C475.632 114.25 470.832 117.25 465.582 117.25C462.582 117.25 460.332 115.975 460.332 113.35ZM519.718 101.425H529.168C528.268 92.05 520.543 85.75 510.418 85.75C499.618 85.75 491.593 93.775 491.593 105.25C491.593 116.725 499.618 124.75 510.418 124.75C520.843 124.75 528.793 118.15 529.243 108.25H519.943C519.193 113.725 515.143 116.5 510.418 116.5C504.793 116.5 500.593 112 500.593 105.25C500.593 98.5 504.793 94 510.418 94C515.143 94 519.118 96.475 519.718 101.425ZM562.263 124H573.513L556.038 103.525L572.538 86.5H560.688L546.138 102.85V67.75H537.138V124H546.138V104.275L562.263 124Z" fill="#FF7051"/>
</svg>
